<svg width="406" height="176" viewBox="0 0 406 176" fill="none" xmlns="http://www.w3.org/2000/svg">
<mask id="path-1-inside-1_745_43" fill="white">
<path d="M69.389 37.9306C73.3568 37.871 77.2043 36.5592 80.382 34.1826C83.5598 31.8059 85.9053 28.4859 87.0836 24.6966C88.2619 20.9074 88.2127 16.8427 86.943 13.0831C85.6734 9.3235 83.2483 6.06121 80.0139 3.76213C76.7796 1.46304 72.9015 0.244746 68.9335 0.281224C64.9654 0.317702 61.1104 1.60709 57.9189 3.96524C54.7273 6.3234 52.3626 9.62973 51.1623 13.412C49.962 17.1944 49.9875 21.2592 51.2353 25.0262L56.9381 23.1372C56.0885 20.5723 56.0711 17.8046 56.8884 15.2292C57.7057 12.6538 59.3158 10.4026 61.4889 8.79692C63.662 7.19127 66.2869 6.31333 68.9887 6.2885C71.6905 6.26366 74.3311 7.09319 76.5333 8.65862C78.7356 10.2241 80.3868 12.4453 81.2513 15.0052C82.1158 17.5651 82.1493 20.3327 81.347 22.9128C80.5447 25.4929 78.9477 27.7535 76.784 29.3717C74.6202 30.99 72.0005 31.8832 69.2989 31.9237L69.389 37.9306Z"/>
</mask>
<path d="M69.389 37.9306C73.3568 37.871 77.2043 36.5592 80.382 34.1826C83.5598 31.8059 85.9053 28.4859 87.0836 24.6966C88.2619 20.9074 88.2127 16.8427 86.943 13.0831C85.6734 9.3235 83.2483 6.06121 80.0139 3.76213C76.7796 1.46304 72.9015 0.244746 68.9335 0.281224C64.9654 0.317702 61.1104 1.60709 57.9189 3.96524C54.7273 6.3234 52.3626 9.62973 51.1623 13.412C49.962 17.1944 49.9875 21.2592 51.2353 25.0262L56.9381 23.1372C56.0885 20.5723 56.0711 17.8046 56.8884 15.2292C57.7057 12.6538 59.3158 10.4026 61.4889 8.79692C63.662 7.19127 66.2869 6.31333 68.9887 6.2885C71.6905 6.26366 74.3311 7.09319 76.5333 8.65862C78.7356 10.2241 80.3868 12.4453 81.2513 15.0052C82.1158 17.5651 82.1493 20.3327 81.347 22.9128C80.5447 25.4929 78.9477 27.7535 76.784 29.3717C74.6202 30.99 72.0005 31.8832 69.2989 31.9237L69.389 37.9306Z" fill="black" stroke="black" stroke-width="2" mask="url(#path-1-inside-1_745_43)"/>
<rect x="68.7283" y="32.1537" width="6.47593" height="20" fill="black"/>
<path d="M113.013 64.8699C107.149 59.4837 100.289 55.2096 92.8727 52.3211C85.4565 49.4326 77.647 47.9932 69.9439 48.0952C62.2409 48.1971 54.8138 49.838 48.1378 52.9129C41.4619 55.9879 35.6841 60.4291 31.174 65.9526L36.3352 69.954C40.332 65.0592 45.4523 61.1233 51.3685 58.3983C57.2847 55.6733 63.8665 54.2191 70.6929 54.1288C77.5194 54.0385 84.4401 55.3141 91.0123 57.8738C97.5846 60.4336 103.664 64.2213 108.861 68.9945L113.013 64.8699Z" fill="black"/>
<circle cx="72.5" cy="113.5" r="51" stroke="black" stroke-width="7"/>
<path d="M115 113.5C115 123.273 111.631 132.748 105.462 140.328C99.2924 147.908 90.6988 153.13 81.1289 155.115C71.5589 157.099 61.5975 155.724 52.9227 151.222C44.2479 146.72 37.3899 139.366 33.5039 130.398L72.5 113.5H115Z" fill="#7DABDC"/>
<path d="M51.8283 122.056C42.5188 125 33.8189 122.874 31.0482 121.648C28.0558 120.775 32.295 128.915 33.5418 131.459L44.7628 134.321L66.7899 138L115 113.471C111.398 110.746 100.786 105.05 90.4793 104.069C77.5956 102.842 63.4653 118.377 51.8283 122.056Z" fill="#7DABDC"/>
<circle cx="45.5" cy="109.5" r="5.5" fill="#7DABDC"/>
<circle cx="56" cy="96" r="3" fill="#7DABDC"/>
<circle cx="58.5" cy="106.5" r="2.5" fill="#7DABDC"/>
<ellipse cx="48" cy="92.5" rx="2" ry="1.5" fill="#7DABDC"/>
<path d="M147.112 82.344C147.112 78.184 147.88 74.12 149.416 70.152C151.016 66.12 153.32 62.472 156.328 59.208C159.336 55.944 162.984 53.352 167.272 51.432C171.624 49.448 176.52 48.456 181.96 48.456C188.488 48.456 194.184 49.832 199.048 52.584C203.912 55.272 207.528 58.856 209.896 63.336L195.592 73.512C194.76 71.272 193.544 69.544 191.944 68.328C190.408 67.112 188.712 66.28 186.856 65.832C185.064 65.32 183.304 65.064 181.576 65.064C178.888 65.064 176.552 65.608 174.568 66.696C172.648 67.72 171.048 69.096 169.768 70.824C168.552 72.552 167.624 74.472 166.984 76.584C166.408 78.696 166.12 80.808 166.12 82.92C166.12 85.288 166.472 87.56 167.176 89.736C167.88 91.912 168.904 93.864 170.248 95.592C171.592 97.256 173.224 98.568 175.144 99.528C177.128 100.488 179.336 100.968 181.768 100.968C183.496 100.968 185.256 100.712 187.048 100.2C188.84 99.624 190.472 98.728 191.944 97.512C193.416 96.296 194.536 94.664 195.304 92.616L210.568 101.736C209.224 105.064 206.984 107.912 203.848 110.28C200.712 112.648 197.16 114.472 193.192 115.752C189.224 116.968 185.288 117.576 181.384 117.576C176.328 117.576 171.688 116.584 167.464 114.6C163.304 112.552 159.688 109.864 156.616 106.536C153.608 103.144 151.272 99.368 149.608 95.208C147.944 90.984 147.112 86.696 147.112 82.344ZM277.519 48.84V117H258.799V90.312H235.951V117H217.231V48.84H235.951V73.992H258.799V48.84H277.519ZM285.487 82.344C285.487 78.184 286.255 74.12 287.791 70.152C289.391 66.12 291.695 62.472 294.703 59.208C297.711 55.944 301.359 53.352 305.647 51.432C309.999 49.448 314.895 48.456 320.335 48.456C326.863 48.456 332.559 49.832 337.423 52.584C342.287 55.272 345.903 58.856 348.271 63.336L333.967 73.512C333.135 71.272 331.919 69.544 330.319 68.328C328.783 67.112 327.087 66.28 325.231 65.832C323.439 65.32 321.679 65.064 319.951 65.064C317.263 65.064 314.927 65.608 312.943 66.696C311.023 67.72 309.423 69.096 308.143 70.824C306.927 72.552 305.999 74.472 305.359 76.584C304.783 78.696 304.495 80.808 304.495 82.92C304.495 85.288 304.847 87.56 305.551 89.736C306.255 91.912 307.279 93.864 308.623 95.592C309.967 97.256 311.599 98.568 313.519 99.528C315.503 100.488 317.711 100.968 320.143 100.968C321.871 100.968 323.631 100.712 325.423 100.2C327.215 99.624 328.847 98.728 330.319 97.512C331.791 96.296 332.911 94.664 333.679 92.616L348.943 101.736C347.599 105.064 345.359 107.912 342.223 110.28C339.087 112.648 335.535 114.472 331.567 115.752C327.599 116.968 323.663 117.576 319.759 117.576C314.703 117.576 310.063 116.584 305.839 114.6C301.679 112.552 298.063 109.864 294.991 106.536C291.983 103.144 289.647 99.368 287.983 95.208C286.319 90.984 285.487 86.696 285.487 82.344ZM355.606 117V48.84H374.326V100.68H405.238V117H355.606Z" fill="black"/>
<path d="M188.608 18.008H191.68L193.624 23.648L195.592 18.008H198.64L195.712 25.76L197.872 31.184L202.696 17.96H206.296L199.48 35H196.624L193.624 27.848L190.648 35H187.792L181 17.96H184.552L189.4 31.184L191.512 25.76L188.608 18.008ZM216.846 17.96H220.206L226.47 35H223.062L221.478 30.752H215.526L213.965 35H210.558L216.846 17.96ZM220.878 28.424L218.526 21.392L216.078 28.424H220.878ZM243.506 22.424C243.394 22.312 243.186 22.16 242.882 21.968C242.594 21.776 242.234 21.592 241.802 21.416C241.386 21.24 240.93 21.088 240.434 20.96C239.938 20.816 239.434 20.744 238.922 20.744C238.026 20.744 237.346 20.912 236.882 21.248C236.434 21.584 236.21 22.056 236.21 22.664C236.21 23.128 236.354 23.496 236.642 23.768C236.93 24.04 237.362 24.272 237.938 24.464C238.514 24.656 239.234 24.864 240.098 25.088C241.218 25.36 242.186 25.696 243.002 26.096C243.834 26.48 244.466 26.992 244.898 27.632C245.346 28.256 245.57 29.088 245.57 30.128C245.57 31.04 245.402 31.824 245.066 32.48C244.73 33.12 244.266 33.64 243.674 34.04C243.082 34.44 242.41 34.736 241.658 34.928C240.906 35.104 240.106 35.192 239.258 35.192C238.41 35.192 237.562 35.104 236.714 34.928C235.866 34.752 235.05 34.504 234.266 34.184C233.482 33.848 232.762 33.448 232.106 32.984L233.57 30.128C233.714 30.272 233.97 30.464 234.338 30.704C234.706 30.928 235.154 31.16 235.682 31.4C236.21 31.624 236.786 31.816 237.41 31.976C238.034 32.136 238.666 32.216 239.306 32.216C240.202 32.216 240.882 32.064 241.346 31.76C241.81 31.456 242.042 31.024 242.042 30.464C242.042 29.952 241.858 29.552 241.49 29.264C241.122 28.976 240.61 28.728 239.954 28.52C239.298 28.296 238.522 28.056 237.626 27.8C236.554 27.496 235.658 27.16 234.938 26.792C234.218 26.408 233.682 25.928 233.33 25.352C232.978 24.776 232.802 24.056 232.802 23.192C232.802 22.024 233.074 21.048 233.618 20.264C234.178 19.464 234.93 18.864 235.874 18.464C236.818 18.048 237.866 17.84 239.018 17.84C239.818 17.84 240.57 17.928 241.274 18.104C241.994 18.28 242.666 18.512 243.29 18.8C243.914 19.088 244.474 19.4 244.97 19.736L243.506 22.424ZM268.167 17.96V35H264.879V27.728H257.151V35H253.839V17.96H257.151V24.848H264.879V17.96H268.167ZM294.341 35L286.325 26.504C285.653 25.784 285.109 25.168 284.693 24.656C284.293 24.128 284.005 23.648 283.829 23.216C283.653 22.784 283.565 22.32 283.565 21.824C283.565 21.008 283.765 20.296 284.165 19.688C284.581 19.064 285.141 18.584 285.845 18.248C286.565 17.912 287.365 17.744 288.245 17.744C289.045 17.744 289.781 17.888 290.453 18.176C291.141 18.448 291.701 18.864 292.133 19.424C292.565 19.984 292.781 20.68 292.781 21.512C292.781 22.264 292.589 22.944 292.205 23.552C291.837 24.16 291.341 24.72 290.717 25.232C290.093 25.744 289.389 26.24 288.605 26.72C288.029 27.088 287.501 27.448 287.021 27.8C286.557 28.152 286.189 28.528 285.917 28.928C285.661 29.312 285.533 29.736 285.533 30.2C285.533 30.648 285.661 31.064 285.917 31.448C286.173 31.832 286.525 32.144 286.973 32.384C287.437 32.608 287.949 32.72 288.509 32.72C289.197 32.72 289.861 32.552 290.501 32.216C291.157 31.88 291.741 31.408 292.253 30.8C292.765 30.176 293.165 29.432 293.453 28.568C293.757 27.704 293.909 26.736 293.909 25.664H296.525C296.525 27.184 296.293 28.536 295.829 29.72C295.365 30.888 294.741 31.888 293.957 32.72C293.173 33.536 292.285 34.16 291.293 34.592C290.301 35.024 289.269 35.24 288.197 35.24C287.029 35.24 286.013 35.008 285.149 34.544C284.285 34.064 283.613 33.44 283.133 32.672C282.669 31.904 282.437 31.072 282.437 30.176C282.437 29.28 282.645 28.496 283.061 27.824C283.477 27.152 284.005 26.56 284.645 26.048C285.285 25.52 285.925 25.056 286.565 24.656C287.269 24.208 287.861 23.832 288.341 23.528C288.821 23.208 289.189 22.896 289.445 22.592C289.701 22.272 289.829 21.928 289.829 21.56C289.829 21.128 289.677 20.784 289.373 20.528C289.085 20.256 288.709 20.12 288.245 20.12C287.893 20.12 287.581 20.192 287.309 20.336C287.053 20.48 286.853 20.672 286.709 20.912C286.565 21.152 286.493 21.424 286.493 21.728C286.493 21.952 286.557 22.176 286.685 22.4C286.829 22.624 287.069 22.92 287.405 23.288C287.757 23.64 288.237 24.144 288.845 24.8L298.565 35H294.341ZM311.87 35V17.96H318.062C319.918 17.96 321.47 18.344 322.718 19.112C323.966 19.864 324.902 20.888 325.526 22.184C326.15 23.464 326.462 24.888 326.462 26.456C326.462 28.184 326.118 29.688 325.43 30.968C324.742 32.248 323.766 33.24 322.502 33.944C321.254 34.648 319.774 35 318.062 35H311.87ZM323.126 26.456C323.126 25.352 322.926 24.384 322.526 23.552C322.126 22.704 321.55 22.048 320.798 21.584C320.046 21.104 319.134 20.864 318.062 20.864H315.182V32.096H318.062C319.15 32.096 320.07 31.856 320.822 31.376C321.574 30.88 322.142 30.208 322.526 29.36C322.926 28.496 323.126 27.528 323.126 26.456ZM334.815 35V17.96H342.351C343.135 17.96 343.855 18.12 344.511 18.44C345.183 18.76 345.759 19.192 346.239 19.736C346.735 20.28 347.111 20.888 347.367 21.56C347.639 22.232 347.775 22.92 347.775 23.624C347.775 24.344 347.647 25.04 347.391 25.712C347.151 26.368 346.799 26.944 346.335 27.44C345.871 27.936 345.327 28.32 344.703 28.592L348.591 35H344.943L341.439 29.288H338.127V35H334.815ZM338.127 26.384H342.279C342.695 26.384 343.063 26.264 343.383 26.024C343.703 25.768 343.959 25.432 344.151 25.016C344.343 24.6 344.439 24.136 344.439 23.624C344.439 23.08 344.327 22.608 344.103 22.208C343.879 21.792 343.591 21.464 343.239 21.224C342.903 20.984 342.535 20.864 342.135 20.864H338.127V26.384ZM357.594 17.96L361.794 25.976L366.066 17.96H369.642L363.45 29.048V35H360.162V29L353.994 17.96H357.594Z" fill="black"/>
<path d="M158.744 141.36C158.744 140.32 158.928 139.304 159.296 138.312C159.68 137.304 160.232 136.392 160.952 135.576C161.672 134.744 162.552 134.088 163.592 133.608C164.632 133.112 165.816 132.864 167.144 132.864C168.712 132.864 170.064 133.208 171.2 133.896C172.352 134.584 173.208 135.48 173.768 136.584L171.224 138.336C170.936 137.696 170.56 137.192 170.096 136.824C169.632 136.44 169.136 136.176 168.608 136.032C168.08 135.872 167.56 135.792 167.048 135.792C166.216 135.792 165.488 135.96 164.864 136.296C164.256 136.632 163.744 137.072 163.328 137.616C162.912 138.16 162.6 138.768 162.392 139.44C162.2 140.112 162.104 140.784 162.104 141.456C162.104 142.208 162.224 142.936 162.464 143.64C162.704 144.328 163.04 144.944 163.472 145.488C163.92 146.016 164.448 146.44 165.056 146.76C165.68 147.064 166.36 147.216 167.096 147.216C167.624 147.216 168.16 147.128 168.704 146.952C169.248 146.776 169.752 146.496 170.216 146.112C170.68 145.728 171.04 145.232 171.296 144.624L174.008 146.184C173.672 147.032 173.12 147.752 172.352 148.344C171.6 148.936 170.752 149.384 169.808 149.688C168.864 149.992 167.928 150.144 167 150.144C165.784 150.144 164.672 149.896 163.664 149.4C162.656 148.888 161.784 148.216 161.048 147.384C160.328 146.536 159.76 145.592 159.344 144.552C158.944 143.496 158.744 142.432 158.744 141.36ZM189.267 150.12C188.019 150.12 186.883 149.88 185.859 149.4C184.851 148.92 183.979 148.272 183.243 147.456C182.523 146.624 181.963 145.696 181.563 144.672C181.163 143.632 180.963 142.568 180.963 141.48C180.963 140.344 181.171 139.264 181.587 138.24C182.019 137.2 182.603 136.28 183.339 135.48C184.091 134.664 184.971 134.024 185.979 133.56C187.003 133.08 188.123 132.84 189.339 132.84C190.571 132.84 191.691 133.088 192.699 133.584C193.723 134.08 194.595 134.744 195.315 135.576C196.035 136.408 196.595 137.336 196.995 138.36C197.395 139.384 197.595 140.44 197.595 141.528C197.595 142.648 197.387 143.728 196.971 144.768C196.555 145.792 195.971 146.712 195.219 147.528C194.483 148.328 193.603 148.96 192.579 149.424C191.571 149.888 190.467 150.12 189.267 150.12ZM184.323 141.48C184.323 142.216 184.435 142.928 184.659 143.616C184.883 144.304 185.203 144.92 185.619 145.464C186.051 145.992 186.571 146.416 187.179 146.736C187.803 147.04 188.507 147.192 189.291 147.192C190.091 147.192 190.803 147.032 191.427 146.712C192.051 146.376 192.571 145.936 192.987 145.392C193.403 144.832 193.715 144.216 193.923 143.544C194.147 142.856 194.259 142.168 194.259 141.48C194.259 140.744 194.139 140.04 193.899 139.368C193.675 138.68 193.347 138.072 192.915 137.544C192.499 137 191.979 136.576 191.355 136.272C190.747 135.952 190.059 135.792 189.291 135.792C188.475 135.792 187.755 135.96 187.131 136.296C186.523 136.616 186.011 137.048 185.595 137.592C185.179 138.136 184.859 138.744 184.635 139.416C184.427 140.088 184.323 140.776 184.323 141.48ZM205.901 150V132.96H209.213V150H205.901ZM221.846 139.056V150H218.534V132.96H221.174L229.982 144.192V132.984H233.294V150H230.534L221.846 139.056ZM248.37 150V132.96H251.682V147.096H260.37V150H248.37ZM271.306 132.96H274.666L280.93 150H277.522L275.938 145.752H269.986L268.426 150H265.018L271.306 132.96ZM275.338 143.424L272.986 136.392L270.538 143.424H275.338ZM295.039 150.12C293.679 150.12 292.519 149.896 291.559 149.448C290.615 148.984 289.847 148.352 289.255 147.552C288.679 146.752 288.255 145.848 287.983 144.84C287.711 143.816 287.575 142.752 287.575 141.648V132.96H290.887V141.648C290.887 142.352 290.951 143.04 291.079 143.712C291.223 144.368 291.455 144.96 291.775 145.488C292.095 146.016 292.519 146.432 293.047 146.736C293.575 147.04 294.231 147.192 295.015 147.192C295.815 147.192 296.479 147.04 297.007 146.736C297.551 146.416 297.975 145.992 298.279 145.464C298.599 144.936 298.831 144.344 298.975 143.688C299.119 143.016 299.191 142.336 299.191 141.648V132.96H302.479V141.648C302.479 142.816 302.335 143.912 302.047 144.936C301.775 145.96 301.335 146.864 300.727 147.648C300.135 148.416 299.367 149.024 298.423 149.472C297.479 149.904 296.351 150.12 295.039 150.12ZM314.893 139.056V150H311.581V132.96H314.221L323.029 144.192V132.984H326.341V150H323.581L314.893 139.056ZM335.651 150V132.96H341.843C343.699 132.96 345.251 133.344 346.499 134.112C347.747 134.864 348.683 135.888 349.307 137.184C349.931 138.464 350.243 139.888 350.243 141.456C350.243 143.184 349.899 144.688 349.211 145.968C348.523 147.248 347.547 148.24 346.283 148.944C345.035 149.648 343.555 150 341.843 150H335.651ZM346.907 141.456C346.907 140.352 346.707 139.384 346.307 138.552C345.907 137.704 345.331 137.048 344.579 136.584C343.827 136.104 342.915 135.864 341.843 135.864H338.963V147.096H341.843C342.931 147.096 343.851 146.856 344.603 146.376C345.355 145.88 345.923 145.208 346.307 144.36C346.707 143.496 346.907 142.528 346.907 141.456ZM358.596 150V132.96H366.132C366.916 132.96 367.636 133.12 368.292 133.44C368.964 133.76 369.54 134.192 370.02 134.736C370.516 135.28 370.892 135.888 371.148 136.56C371.42 137.232 371.556 137.92 371.556 138.624C371.556 139.344 371.428 140.04 371.172 140.712C370.932 141.368 370.58 141.944 370.116 142.44C369.652 142.936 369.108 143.32 368.484 143.592L372.372 150H368.724L365.22 144.288H361.908V150H358.596ZM361.908 141.384H366.06C366.476 141.384 366.844 141.264 367.164 141.024C367.484 140.768 367.74 140.432 367.932 140.016C368.124 139.6 368.22 139.136 368.22 138.624C368.22 138.08 368.108 137.608 367.884 137.208C367.66 136.792 367.372 136.464 367.02 136.224C366.684 135.984 366.316 135.864 365.916 135.864H361.908V141.384ZM381.376 132.96L385.576 140.976L389.848 132.96H393.424L387.232 144.048V150H383.944V144L377.776 132.96H381.376Z" fill="black"/>
</svg>
